<?xml version="1.0" encoding="UTF-8" standalone="no"?><!-- Generator: Gravit.io --><svg xmlns="http://www.w3.org/2000/svg" xmlns:xlink="http://www.w3.org/1999/xlink" style="isolation:isolate" viewBox="0 0 48 48" width="48pt" height="48pt"><defs><clipPath id="_clipPath_Csp4ash1AU25XrennvB1RcENbjywhXjO"><rect width="48" height="48"/></clipPath></defs><g clip-path="url(#_clipPath_Csp4ash1AU25XrennvB1RcENbjywhXjO)"><rect x="0" y="0" width="48" height="48" transform="matrix(1,0,0,1,0,0)" fill="none"/><g><radialGradient id="_rgradient_36" fx="0.5000018204656751" fy="0.5000417188151829" cx="0.5" cy="0.5" r="1" gradientTransform="matrix(41.198,0,0,4.494,3.371,41.948)" gradientUnits="userSpaceOnUse"><stop offset="0%" stop-opacity="0.2" style="stop-color:rgb(0,0,0)"/><stop offset="100%" stop-opacity="0" style="stop-color:rgb(0,0,0)"/></radialGradient><path d=" M 44.569 44.195 C 44.567 45.428 35.269 46.442 23.97 46.442 C 12.671 46.442 3.373 45.428 3.371 44.195 L 3.371 44.195 C 3.371 42.962 12.67 41.948 23.97 41.948 C 35.271 41.948 44.569 42.962 44.569 44.195 L 44.569 44.195 L 44.569 44.195 Z " fill="url(#_rgradient_36)"/><g style="opacity:0.4;"><g style="opacity:0.4;"><g opacity="0.4"><radialGradient id="_rgradient_37" fx="-0.001409145353342467" fy="0.5" cx="0.5" cy="0.5" r="1" gradientTransform="matrix(5.322,0,0,1.873,38.872,43.446)" gradientUnits="userSpaceOnUse"><stop offset="0%" stop-opacity="0.4" style="stop-color:rgb(24,24,24)"/><stop offset="100%" stop-opacity="0" style="stop-color:rgb(24,24,24)"/></radialGradient><rect x="38.872" y="43.446" width="5.322" height="1.873" transform="matrix(1,0,0,1,0,0)" fill="url(#_rgradient_37)"/></g></g><g style="opacity:0.4;"><g opacity="0.4"><radialGradient id="_rgradient_38" fx="1.0013457338124432" fy="0.5" cx="0.5" cy="0.5" r="1" gradientTransform="matrix(5.322,0,0,1.873,3.746,43.446)" gradientUnits="userSpaceOnUse"><stop offset="0%" stop-opacity="0.4" style="stop-color:rgb(24,24,24)"/><stop offset="100%" stop-opacity="0" style="stop-color:rgb(24,24,24)"/></radialGradient><rect x="3.746" y="43.446" width="5.322" height="1.873" transform="matrix(1,0,0,1,0,0)" fill="url(#_rgradient_38)"/></g></g><g style="opacity:0.4;"><g opacity="0.4"><linearGradient id="_lgradient_25" x1="0.5377906391545042" y1="1.0040048057669182" x2="0.5377906391545046" y2="0.9976409679635284" gradientTransform="matrix(29.805,0,0,1.873,9.067,43.446)" gradientUnits="userSpaceOnUse"><stop offset="0%" stop-opacity="0" style="stop-color:rgb(24,24,24)"/><stop offset="50%" stop-opacity="0.4" style="stop-color:rgb(24,24,24)"/><stop offset="100%" stop-opacity="0" style="stop-color:rgb(24,24,24)"/></linearGradient><rect x="9.067" y="43.446" width="29.805" height="1.873" transform="matrix(1,0,0,1,0,0)" fill="url(#_lgradient_25)"/></g></g></g><radialGradient id="_rgradient_39" fx="0.4999970551569111" fy="-0.0028741668548094013" cx="0.5" cy="0.5" r="1" gradientTransform="matrix(38.202,0,0,38.202,4.869,5.992)" gradientUnits="userSpaceOnUse"><stop offset="0%" stop-opacity="1" style="stop-color:rgb(250,250,250)"/><stop offset="100%" stop-opacity="1" style="stop-color:rgb(225,225,225)"/></radialGradient><path d=" M 43.071 7.678 C 43.071 6.748 42.316 5.992 41.386 5.992 L 6.554 5.992 C 5.624 5.992 4.869 6.748 4.869 7.678 L 4.869 42.509 C 4.869 43.44 5.624 44.195 6.554 44.195 L 41.386 44.195 C 42.316 44.195 43.071 43.44 43.071 42.509 L 43.071 7.678 L 43.071 7.678 Z " fill-rule="evenodd" fill="url(#_rgradient_39)"/></g><linearGradient id="_lgradient_26" x1="0.14644660940672605" y1="0.8535533905932734" x2="0.7281094388844305" y2="0.0401233980284611" gradientTransform="matrix(18.169,0,0,25.409,14.915,11.295)" gradientUnits="userSpaceOnUse"><stop offset="0%" stop-opacity="1" style="stop-color:rgb(153,0,255)"/><stop offset="100%" stop-opacity="1" style="stop-color:rgb(255,0,200)"/></linearGradient><path d=" M 29.451 14.93 C 27.435 14.93 25.817 16.548 25.817 18.563 C 25.817 19.898 26.555 21.062 27.634 21.686 L 27.634 22.197 C 27.634 24.014 25.817 25.831 24 25.831 C 22.495 25.831 21.303 26.144 20.366 26.655 L 20.366 18.052 C 21.445 17.428 22.183 16.264 22.183 14.93 C 22.183 12.914 20.565 11.295 18.549 11.295 C 16.533 11.295 14.915 12.914 14.915 14.93 C 14.915 16.264 15.653 17.428 16.732 18.052 L 16.732 29.948 C 15.653 30.572 14.915 31.736 14.915 33.071 C 14.915 35.086 16.533 36.705 18.549 36.705 C 20.565 36.705 22.183 35.086 22.183 33.071 C 22.183 32.105 21.814 31.254 21.218 30.601 C 21.757 29.948 22.609 29.437 24 29.437 C 27.634 29.437 31.268 25.803 31.268 22.169 L 31.268 21.658 C 32.347 21.033 33.085 19.869 33.085 18.535 C 33.085 16.519 31.467 14.901 29.451 14.901 L 29.451 14.93 Z  M 18.549 13.112 C 19.543 13.112 20.366 13.936 20.366 14.93 C 20.366 15.923 19.543 16.746 18.549 16.746 C 17.556 16.746 16.732 15.923 16.732 14.93 C 16.732 13.936 17.556 13.112 18.549 13.112 Z  M 18.549 34.916 C 17.556 34.916 16.732 34.093 16.732 33.099 C 16.732 32.105 17.556 31.282 18.549 31.282 C 19.543 31.282 20.366 32.105 20.366 33.099 C 20.366 34.093 19.543 34.916 18.549 34.916 Z  M 29.451 20.38 C 28.457 20.38 27.634 19.557 27.634 18.563 C 27.634 17.57 28.457 16.746 29.451 16.746 C 30.444 16.746 31.268 17.57 31.268 18.563 C 31.268 19.557 30.444 20.38 29.451 20.38 Z " fill="url(#_lgradient_26)"/></g></svg>