<?xml version="1.0" encoding="UTF-8" standalone="no"?><!-- Generator: Gravit.io --><svg xmlns="http://www.w3.org/2000/svg" xmlns:xlink="http://www.w3.org/1999/xlink" style="isolation:isolate" viewBox="0 0 24 24" width="24pt" height="24pt"><defs><clipPath id="_clipPath_099JwmdKK69juYl6sktEXT4wQ8UVOwD4"><rect width="24" height="24"/></clipPath></defs><g clip-path="url(#_clipPath_099JwmdKK69juYl6sktEXT4wQ8UVOwD4)"><rect x="0" y="0" width="24" height="24" transform="matrix(1,0,0,1,0,0)" fill="none"/><g><radialGradient id="_rgradient_44" fx="0.5000018204656751" fy="0.5000417188151829" cx="0.5" cy="0.5" r="1" gradientTransform="matrix(20.599,0,0,2.247,1.685,20.974)" gradientUnits="userSpaceOnUse"><stop offset="0%" stop-opacity="0.2" style="stop-color:rgb(0,0,0)"/><stop offset="100%" stop-opacity="0" style="stop-color:rgb(0,0,0)"/></radialGradient><path d=" M 22.285 22.098 C 22.284 22.714 17.635 23.221 11.985 23.221 C 6.335 23.221 1.686 22.714 1.685 22.098 L 1.685 22.097 C 1.685 21.481 6.335 20.974 11.985 20.974 C 17.635 20.974 22.285 21.481 22.285 22.097 L 22.285 22.098 L 22.285 22.098 Z " fill="url(#_rgradient_44)"/><g style="opacity:0.4;"><g style="opacity:0.4;"><g opacity="0.4"><radialGradient id="_rgradient_45" fx="-0.001409145353342467" fy="0.5" cx="0.5" cy="0.5" r="1" gradientTransform="matrix(2.661,0,0,0.936,19.436,21.723)" gradientUnits="userSpaceOnUse"><stop offset="0%" stop-opacity="0.4" style="stop-color:rgb(24,24,24)"/><stop offset="100%" stop-opacity="0" style="stop-color:rgb(24,24,24)"/></radialGradient><rect x="19.436" y="21.723" width="2.661" height="0.936" transform="matrix(1,0,0,1,0,0)" fill="url(#_rgradient_45)"/></g></g><g style="opacity:0.4;"><g opacity="0.4"><radialGradient id="_rgradient_46" fx="1.0013457338124432" fy="0.5" cx="0.5" cy="0.5" r="1" gradientTransform="matrix(2.661,0,0,0.936,1.873,21.723)" gradientUnits="userSpaceOnUse"><stop offset="0%" stop-opacity="0.4" style="stop-color:rgb(24,24,24)"/><stop offset="100%" stop-opacity="0" style="stop-color:rgb(24,24,24)"/></radialGradient><rect x="1.873" y="21.723" width="2.661" height="0.936" transform="matrix(1,0,0,1,0,0)" fill="url(#_rgradient_46)"/></g></g><g style="opacity:0.4;"><g opacity="0.4"><linearGradient id="_lgradient_29" x1="0.5377906391545042" y1="1.0040048057669182" x2="0.5377906391545046" y2="0.9976409679635284" gradientTransform="matrix(14.903,0,0,0.936,4.534,21.723)" gradientUnits="userSpaceOnUse"><stop offset="0%" stop-opacity="0" style="stop-color:rgb(24,24,24)"/><stop offset="50%" stop-opacity="0.4" style="stop-color:rgb(24,24,24)"/><stop offset="100%" stop-opacity="0" style="stop-color:rgb(24,24,24)"/></linearGradient><rect x="4.534" y="21.723" width="14.903" height="0.936" transform="matrix(1,0,0,1,0,0)" fill="url(#_lgradient_29)"/></g></g></g><radialGradient id="_rgradient_47" fx="0.4999970551569111" fy="-0.0028741668548094013" cx="0.5" cy="0.5" r="1" gradientTransform="matrix(19.101,0,0,19.101,2.435,2.996)" gradientUnits="userSpaceOnUse"><stop offset="0%" stop-opacity="1" style="stop-color:rgb(250,250,250)"/><stop offset="100%" stop-opacity="1" style="stop-color:rgb(225,225,225)"/></radialGradient><path d=" M 21.536 3.839 C 21.536 3.374 21.158 2.996 20.693 2.996 L 3.277 2.996 C 2.812 2.996 2.435 3.374 2.435 3.839 L 2.435 21.255 C 2.435 21.72 2.812 22.097 3.277 22.097 L 20.693 22.097 C 21.158 22.097 21.536 21.72 21.536 21.255 L 21.536 3.839 L 21.536 3.839 Z " fill-rule="evenodd" fill="url(#_rgradient_47)"/></g><linearGradient id="_lgradient_30" x1="0.14644660940672605" y1="0.8535533905932734" x2="0.7281094388844305" y2="0.0401233980284611" gradientTransform="matrix(9.085,0,0,12.705,7.458,5.648)" gradientUnits="userSpaceOnUse"><stop offset="0%" stop-opacity="1" style="stop-color:rgb(153,0,255)"/><stop offset="100%" stop-opacity="1" style="stop-color:rgb(255,0,200)"/></linearGradient><path d=" M 14.726 7.465 C 13.718 7.465 12.908 8.274 12.908 9.282 C 12.908 9.949 13.278 10.531 13.817 10.843 L 13.817 11.099 C 13.817 12.007 12.908 12.916 12 12.916 C 11.248 12.916 10.651 13.072 10.183 13.327 L 10.183 9.026 C 10.722 8.714 11.092 8.132 11.092 7.465 C 11.092 6.457 10.282 5.648 9.275 5.648 C 8.267 5.648 7.458 6.457 7.458 7.465 C 7.458 8.132 7.827 8.714 8.366 9.026 L 8.366 14.974 C 7.827 15.286 7.458 15.868 7.458 16.535 C 7.458 17.543 8.267 18.352 9.275 18.352 C 10.282 18.352 11.092 17.543 11.092 16.535 C 11.092 16.053 10.907 15.627 10.609 15.3 C 10.879 14.974 11.304 14.718 12 14.718 C 13.817 14.718 15.634 12.901 15.634 11.084 L 15.634 10.829 C 16.173 10.517 16.542 9.935 16.542 9.267 C 16.542 8.26 15.733 7.451 14.726 7.451 L 14.726 7.465 Z  M 9.275 6.556 C 9.771 6.556 10.183 6.968 10.183 7.465 C 10.183 7.961 9.771 8.373 9.275 8.373 C 8.778 8.373 8.366 7.961 8.366 7.465 C 8.366 6.968 8.778 6.556 9.275 6.556 Z  M 9.275 17.458 C 8.778 17.458 8.366 17.046 8.366 16.549 C 8.366 16.053 8.778 15.641 9.275 15.641 C 9.771 15.641 10.183 16.053 10.183 16.549 C 10.183 17.046 9.771 17.458 9.275 17.458 Z  M 14.726 10.19 C 14.229 10.19 13.817 9.779 13.817 9.282 C 13.817 8.785 14.229 8.373 14.726 8.373 C 15.222 8.373 15.634 8.785 15.634 9.282 C 15.634 9.779 15.222 10.19 14.726 10.19 Z " fill="url(#_lgradient_30)"/></g></svg>