<?xml version="1.0" encoding="UTF-8" standalone="no"?><!-- Generator: Gravit.io --><svg xmlns="http://www.w3.org/2000/svg" xmlns:xlink="http://www.w3.org/1999/xlink" style="isolation:isolate" viewBox="0 0 128 128" width="128pt" height="128pt"><defs><clipPath id="_clipPath_u4WbYFtZKGCRHgFLvkQaUHS9PnsaTgij"><rect width="128" height="128"/></clipPath></defs><g clip-path="url(#_clipPath_u4WbYFtZKGCRHgFLvkQaUHS9PnsaTgij)"><g><radialGradient id="_rgradient_28" fx="0.5000018204656751" fy="0.5000417188151829" cx="0.5000018204656751" cy="0.5000417188151829" r="1" gradientTransform="matrix(109.862,0,0,11.985,8.989,111.861)" gradientUnits="userSpaceOnUse"><stop offset="0%" stop-opacity="0.2" style="stop-color:rgb(0,0,0)"/><stop offset="100%" stop-opacity="0" style="stop-color:rgb(0,0,0)"/></radialGradient><path d=" M 118.851 117.854 C 118.846 121.141 94.051 123.846 63.92 123.846 C 33.789 123.846 8.994 121.141 8.989 117.854 L 8.989 117.853 C 8.989 114.566 33.786 111.861 63.92 111.861 C 94.055 111.861 118.851 114.566 118.851 117.853 L 118.851 117.854 L 118.851 117.854 L 118.851 117.854 Z " fill="url(#_rgradient_28)"/><g style="opacity:0.4;"><g style="opacity:0.4;"><g opacity="0.4"><radialGradient id="_rgradient_29" fx="-0.001409145353342467" fy="0.5" cx="-0.001409145353342467" cy="0.5" r="1" gradientTransform="matrix(14.193,0,0,4.994,103.66,115.857)" gradientUnits="userSpaceOnUse"><stop offset="0%" stop-opacity="0.4" style="stop-color:rgb(24,24,24)"/><stop offset="100%" stop-opacity="0" style="stop-color:rgb(24,24,24)"/></radialGradient><rect x="103.66" y="115.857" width="14.193" height="4.994" transform="matrix(1,0,0,1,0,0)" fill="url(#_rgradient_29)"/></g></g><g style="opacity:0.4;"><g opacity="0.4"><radialGradient id="_rgradient_30" fx="1.0013457338124432" fy="0.5" cx="1.0013457338124432" cy="0.5" r="1" gradientTransform="matrix(14.193,0,0,4.994,9.988,115.857)" gradientUnits="userSpaceOnUse"><stop offset="0%" stop-opacity="0.4" style="stop-color:rgb(24,24,24)"/><stop offset="100%" stop-opacity="0" style="stop-color:rgb(24,24,24)"/></radialGradient><rect x="9.988" y="115.857" width="14.193" height="4.994" transform="matrix(1,0,0,1,0,0)" fill="url(#_rgradient_30)"/></g></g><g style="opacity:0.4;"><g opacity="0.4"><linearGradient id="_lgradient_21" x1="0.5377906391545042" y1="1.0040048057669182" x2="0.5377906391545046" y2="0.9976409679635284" gradientTransform="matrix(79.48,0,0,4.994,24.18,115.857)" gradientUnits="userSpaceOnUse"><stop offset="0%" stop-opacity="0" style="stop-color:rgb(24,24,24)"/><stop offset="50%" stop-opacity="0.4" style="stop-color:rgb(24,24,24)"/><stop offset="100%" stop-opacity="0" style="stop-color:rgb(24,24,24)"/></linearGradient><rect x="24.18" y="115.857" width="79.48" height="4.994" transform="matrix(1,0,0,1,0,0)" fill="url(#_lgradient_21)"/></g></g></g><radialGradient id="_rgradient_31" fx="0.4999970551569111" fy="-0.0028741668548094013" cx="0.4999970551569111" cy="-0.0028741668548094013" r="1" gradientTransform="matrix(101.873,0,0,101.873,12.984,15.98)" gradientUnits="userSpaceOnUse"><stop offset="0%" stop-opacity="1" style="stop-color:rgb(250,250,250)"/><stop offset="100%" stop-opacity="1" style="stop-color:rgb(225,225,225)"/></radialGradient><path d=" M 114.857 20.474 C 114.857 17.994 112.843 15.98 110.362 15.98 L 17.478 15.98 C 14.998 15.98 12.984 17.994 12.984 20.474 L 12.984 113.358 C 12.984 115.839 14.998 117.853 17.478 117.853 L 110.362 117.853 C 112.843 117.853 114.857 115.839 114.857 113.358 L 114.857 20.474 L 114.857 20.474 L 114.857 20.474 Z " fill-rule="evenodd" fill="url(#_rgradient_31)"/></g><linearGradient id="_lgradient_22" x1="0.14644660940672605" y1="0.8535533905932734" x2="0.7281094388844305" y2="0.0401233980284611" gradientTransform="matrix(48.452,0,0,67.758,39.774,30.121)" gradientUnits="userSpaceOnUse"><stop offset="0%" stop-opacity="1" style="stop-color:rgb(153,0,255)"/><stop offset="100%" stop-opacity="1" style="stop-color:rgb(255,0,200)"/></linearGradient><path d=" M 78.536 39.812 C 73.161 39.812 68.845 44.127 68.845 49.502 C 68.845 53.06 70.814 56.164 73.69 57.83 L 73.69 59.193 C 73.69 64.038 68.845 68.883 64 68.883 C 59.988 68.883 56.808 69.716 54.31 71.079 L 54.31 48.139 C 57.186 46.474 59.155 43.37 59.155 39.812 C 59.155 34.437 54.839 30.121 49.464 30.121 C 44.089 30.121 39.774 34.437 39.774 39.812 C 39.774 43.37 41.742 46.474 44.619 48.139 L 44.619 79.861 C 41.742 81.526 39.774 84.63 39.774 88.188 C 39.774 93.563 44.089 97.879 49.464 97.879 C 54.839 97.879 59.155 93.563 59.155 88.188 C 59.155 85.614 58.171 83.343 56.581 81.602 C 58.019 79.861 60.29 78.498 64 78.498 C 73.69 78.498 83.381 68.807 83.381 59.117 L 83.381 57.754 C 86.258 56.089 88.226 52.985 88.226 49.426 C 88.226 44.051 83.911 39.736 78.536 39.736 L 78.536 39.812 L 78.536 39.812 Z  M 49.464 34.966 C 52.114 34.966 54.31 37.162 54.31 39.812 C 54.31 42.461 52.114 44.657 49.464 44.657 C 46.815 44.657 44.619 42.461 44.619 39.812 C 44.619 37.162 46.815 34.966 49.464 34.966 Z  M 49.464 93.109 C 46.815 93.109 44.619 90.914 44.619 88.264 C 44.619 85.614 46.815 83.419 49.464 83.419 C 52.114 83.419 54.31 85.614 54.31 88.264 C 54.31 90.914 52.114 93.109 49.464 93.109 Z  M 78.536 54.347 C 75.886 54.347 73.69 52.152 73.69 49.502 C 73.69 46.852 75.886 44.657 78.536 44.657 C 81.185 44.657 83.381 46.852 83.381 49.502 C 83.381 52.152 81.185 54.347 78.536 54.347 Z " fill="url(#_lgradient_22)"/></g></svg>