<?xml version="1.0" encoding="UTF-8"?>
<svg xmlns="http://www.w3.org/2000/svg" xmlns:xlink="http://www.w3.org/1999/xlink" width="128px" height="128px" viewBox="0 0 128 128" version="1.1">
<defs>
<radialGradient id="radial0" gradientUnits="userSpaceOnUse" cx="172" cy="230" fx="172" fy="230" r="6" gradientTransform="matrix(7.666664,0,0,2.333337,-1252.66626,-422.66748)">
<stop offset="0" style="stop-color:rgb(0%,0%,0%);stop-opacity:0.245968;"/>
<stop offset="1" style="stop-color:rgb(0%,0%,0%);stop-opacity:0;"/>
</radialGradient>
<linearGradient id="linear0" gradientUnits="userSpaceOnUse" x1="172" y1="213" x2="172" y2="231" gradientTransform="matrix(3.863605,0,0,3.733336,-615.290344,-741.399902)">
<stop offset="0" style="stop-color:rgb(83.137256%,55.686277%,8.235294%);stop-opacity:1;"/>
<stop offset="0.279514" style="stop-color:rgb(100%,95.294118%,58.039218%);stop-opacity:1;"/>
<stop offset="0.666667" style="stop-color:rgb(97.647059%,76.862746%,25.098041%);stop-opacity:1;"/>
<stop offset="1" style="stop-color:rgb(83.137256%,55.686277%,8.235294%);stop-opacity:1;"/>
</linearGradient>
<radialGradient id="radial1" gradientUnits="userSpaceOnUse" cx="181.523605" cy="207.515472" fx="181.523605" fy="207.515472" r="3" gradientTransform="matrix(-0.0000216872,10.126383,-9.875214,-0.0000275984,2129.420898,-1816.228516)">
<stop offset="0" style="stop-color:rgb(39.215687%,72.941178%,100%);stop-opacity:0.5;"/>
<stop offset="1" style="stop-color:rgb(5.098039%,32.156864%,74.901962%);stop-opacity:0.5;"/>
</radialGradient>
<radialGradient id="radial2" gradientUnits="userSpaceOnUse" cx="170.531921" cy="204.523743" fx="170.531921" fy="204.523743" r="3" gradientTransform="matrix(0.00000593472,8.145279,-7.304945,0.00000944758,1534.833008,-1365.032471)">
<stop offset="0" style="stop-color:rgb(39.215687%,72.941178%,100%);stop-opacity:0.5;"/>
<stop offset="1" style="stop-color:rgb(5.098039%,32.156864%,74.901962%);stop-opacity:0.5;"/>
</radialGradient>
<linearGradient id="linear1" gradientUnits="userSpaceOnUse" x1="177" y1="202" x2="177" y2="214" gradientTransform="matrix(4.285714,0,0,4.227277,-692.357117,-676.523743)">
<stop offset="0" style="stop-color:rgb(100%,100%,100%);stop-opacity:0.501961;"/>
<stop offset="0.0833333" style="stop-color:rgb(100%,100%,100%);stop-opacity:0.118108;"/>
<stop offset="0.916667" style="stop-color:rgb(100%,100%,100%);stop-opacity:0.078739;"/>
<stop offset="1" style="stop-color:rgb(100%,100%,100%);stop-opacity:0.196847;"/>
</linearGradient>
</defs>
<g id="surface117503">
<path style=" stroke:none;fill-rule:nonzero;fill:url(#radial0);" d="M 112 114 C 112 121.730469 91.40625 128 66 128 C 40.59375 128 20 121.730469 20 114 C 20 106.269531 40.59375 100 66 100 C 91.40625 100 112 106.269531 112 114 Z M 112 114 "/>
<path style=" stroke:none;fill-rule:nonzero;fill:url(#linear0);" d="M 89.816406 9 C 77.015625 9 66.636719 19.199219 66.636719 31.78125 C 66.636719 42.007812 73.574219 50.976562 83.601562 53.722656 C 82.722656 58.328125 80.445312 65.523438 78.867188 67.261719 C 75.371094 70.664062 71.878906 70.664062 57.898438 70.664062 L 50.699219 70.875 L 50.902344 50.429688 C 60.027344 48.734375 66.632812 40.902344 66.636719 31.78125 C 66.636719 21.339844 58.054688 12.859375 47.429688 12.796875 L 47.390625 12.796875 C 47.367188 12.796875 47.34375 12.796875 47.316406 12.796875 C 36.648438 12.796875 28 21.296875 28 31.78125 C 28 40.804688 34.46875 48.578125 43.46875 50.378906 L 43.21875 69.746094 L 42.972656 77.339844 L 43.453125 80.886719 C 34.929688 83.816406 28 91.246094 28 100.117188 C 28 111.652344 37.511719 121 49.25 121 C 60.984375 121 70.5 111.652344 70.5 100.117188 C 71 89 60.707031 82.777344 50.699219 80.886719 L 50.699219 76.882812 C 57.691406 76.882812 64.890625 77.464844 71.8125 77.21875 C 83.929688 77.429688 89.945312 63.277344 91.378906 54.5 C 103.546875 53.691406 112.996094 43.761719 113 31.78125 C 113 19.199219 102.621094 9 89.816406 9 Z M 89.816406 14.695312 C 99.417969 14.695312 107.203125 22.34375 107.203125 31.78125 C 107.203125 41.214844 99.417969 48.863281 89.816406 48.863281 C 80.214844 48.863281 72.429688 41.214844 72.429688 31.78125 C 72.429688 22.34375 80.214844 14.695312 89.816406 14.695312 Z M 47.316406 18.492188 C 54.785156 18.492188 60.839844 24.441406 60.839844 31.78125 C 60.839844 39.117188 54.785156 45.066406 47.316406 45.066406 C 39.851562 45.066406 33.796875 39.117188 33.796875 31.78125 C 33.796875 24.441406 39.851562 18.492188 47.316406 18.492188 Z M 47.316406 86.894531 C 54.785156 86.894531 62.773438 92.253906 62.773438 100.117188 C 62.773438 107.980469 56.71875 114.355469 49.25 114.355469 C 41.78125 114.355469 35.726562 107.980469 35.726562 100.117188 C 35.726562 92.253906 39.851562 86.894531 47.316406 86.894531 Z M 47.316406 86.894531 "/>
<path style="fill:none;stroke-width:1;stroke-linecap:butt;stroke-linejoin:miter;stroke:rgb(67.843139%,37.254903%,0%);stroke-opacity:0.501961;stroke-miterlimit:4;" d="M 90.773438 181.5 C 77.667969 181.5 67.046875 191.441406 67.046875 203.707031 C 67.046875 213.675781 74.148438 222.421875 84.410156 225.09375 C 83.511719 229.585938 80.886719 236.964844 77.921875 239.992188 C 76.933594 242.007812 65.910156 243 58 243 L 51 243 L 50.941406 221.886719 C 60.28125 220.234375 67.042969 212.601562 67.046875 203.707031 C 67.046875 193.527344 58.265625 185.261719 47.390625 185.203125 L 47.351562 185.203125 C 47.324219 185.199219 47.296875 185.199219 47.273438 185.203125 C 36.351562 185.203125 27.5 193.484375 27.5 203.707031 C 27.503906 212.503906 34.121094 220.082031 43.332031 221.835938 L 43.316406 239.992188 L 43.316406 248.058594 L 43 253 C 35 256 28 263 27.5 271.253906 C 26.820312 282.476562 37.238281 292.5 49.25 292.5 C 61.261719 292.5 71 282.707031 71 271.464844 C 71 261.703125 60.941406 254.726562 50.699219 252.886719 L 51 249 C 58.15625 249 65.914062 249.238281 73 249 C 85.402344 249.207031 90 234 92.371094 225.855469 C 104.824219 225.066406 114.496094 215.386719 114.5 203.707031 C 114.5 191.441406 103.875 181.5 90.773438 181.5 Z M 90.773438 187.050781 C 100.601562 187.050781 108.570312 194.507812 108.570312 203.707031 C 108.570312 212.902344 100.601562 220.359375 90.773438 220.359375 C 80.945312 220.359375 72.980469 212.902344 72.980469 203.707031 C 72.980469 194.507812 80.945312 187.050781 90.773438 187.050781 Z M 47.273438 190.753906 C 54.917969 190.753906 61.113281 196.550781 61.113281 203.707031 C 61.113281 210.859375 54.917969 216.660156 47.273438 216.660156 C 39.628906 216.660156 33.433594 210.859375 33.433594 203.707031 C 33.433594 196.550781 39.628906 190.753906 47.273438 190.753906 Z M 48 259 C 55.644531 259 63.09375 264.597656 63.09375 272.261719 C 63.09375 279.929688 56.894531 285.808594 49.25 285.808594 C 41.605469 285.808594 35.410156 279.929688 35.410156 272.261719 C 35.410156 264.195312 40.089844 259 48 259 Z M 48 259 " transform="matrix(1,0,0,1,0,-172)"/>
<path style=" stroke:none;fill-rule:nonzero;fill:url(#radial1);" d="M 110 32 C 110 43.222656 101.046875 52.324219 90 52.324219 C 78.953125 52.324219 70 43.222656 70 32 C 70 20.777344 78.953125 11.675781 90 11.675781 C 101.046875 11.675781 110 20.777344 110 32 Z M 110 32 "/>
<path style=" stroke:none;fill-rule:nonzero;fill:url(#radial2);" d="M 62.714844 32 C 62.714844 40.980469 56.125 48.257812 48 48.257812 C 39.875 48.257812 33.285156 40.980469 33.285156 32 C 33.285156 23.019531 39.875 15.742188 48 15.742188 C 56.125 15.742188 62.714844 23.019531 62.714844 32 Z M 62.714844 32 "/>
<path style="fill-rule:nonzero;fill:rgb(83.137256%,83.137256%,83.137256%);fill-opacity:1;stroke-width:1;stroke-linecap:butt;stroke-linejoin:round;stroke:rgb(33.333334%,34.117648%,38.039216%);stroke-opacity:0.501961;stroke-miterlimit:4;" d="M 90.203125 178 C 79.816406 178.003906 70.488281 184.53125 66.675781 194.460938 C 63.109375 186.84375 55.617188 182 47.390625 182 C 35.570312 182 25.988281 191.851562 25.988281 204 C 25.988281 216.148438 35.570312 226 47.390625 226 C 55.613281 226 63.109375 221.160156 66.675781 213.546875 C 70.488281 223.472656 79.816406 230 90.203125 230 C 104.175781 230 115.5 218.359375 115.5 204 C 115.5 189.640625 104.175781 178 90.203125 178 Z M 90.203125 186 C 99.875 186 107.714844 194.058594 107.714844 204 C 107.714844 213.941406 99.875 222 90.203125 222 C 80.53125 222 72.6875 213.941406 72.6875 204 C 72.6875 194.058594 80.53125 186 90.203125 186 Z M 47.390625 190 C 54.914062 190 61.011719 196.269531 61.011719 204 C 61.011719 211.730469 54.914062 218 47.390625 218 C 39.867188 218 33.769531 211.730469 33.769531 204 C 33.769531 196.269531 39.867188 190 47.390625 190 Z M 47.390625 190 " transform="matrix(1,0,0,1,0,-172)"/>
<path style="fill:none;stroke-width:1;stroke-linecap:butt;stroke-linejoin:round;stroke:url(#linear1);stroke-miterlimit:4;" d="M 90.066406 179.5 C 79.621094 179.503906 70.242188 185.339844 66.410156 194.21875 C 62.824219 187.410156 55.289062 183.078125 47.023438 183.078125 C 35.136719 183.078125 25.5 191.886719 25.5 202.75 C 25.5 213.613281 35.136719 222.421875 47.023438 222.421875 C 55.289062 222.421875 62.824219 218.09375 66.410156 211.289062 C 70.246094 220.164062 79.625 226 90.066406 226 C 104.113281 226 115.5 215.589844 115.5 202.75 C 115.5 189.910156 104.113281 179.5 90.066406 179.5 Z M 90.066406 186.652344 C 99.789062 186.652344 107 196.109375 107 205 C 107 213.890625 99.496094 221.996094 89.773438 221.996094 C 80.046875 221.996094 74 211.890625 74 203 C 74 194.109375 80.339844 186.652344 90.066406 186.652344 Z M 47 191 C 54.5625 191 60 196.085938 60 203 C 60 209.914062 54.945312 218 47.382812 218 C 39.820312 218 35 209.914062 35 203 C 35 196.085938 39.4375 191 47 191 Z M 47 191 " transform="matrix(1,0,0,1,0,-172)"/>
</g>
</svg>
