<?xml version="1.0" encoding="UTF-8" standalone="no"?><!-- Generator: Gravit.io --><svg xmlns="http://www.w3.org/2000/svg" xmlns:xlink="http://www.w3.org/1999/xlink" style="isolation:isolate" viewBox="0 0 16 16" width="16pt" height="16pt"><defs><clipPath id="_clipPath_OezXr6cjavqRyo48SCfqE5ExP9PD4JIV"><rect width="16" height="16"/></clipPath></defs><g clip-path="url(#_clipPath_OezXr6cjavqRyo48SCfqE5ExP9PD4JIV)"><rect x="0" y="0" width="16" height="16" transform="matrix(1,0,0,1,0,0)" fill="none"/><g><radialGradient id="_rgradient_48" fx="0.5000018204656751" fy="0.5000417188151829" cx="0.5" cy="0.5" r="1" gradientTransform="matrix(13.733,0,0,1.498,1.124,13.983)" gradientUnits="userSpaceOnUse"><stop offset="0%" stop-opacity="0.2" style="stop-color:rgb(0,0,0)"/><stop offset="100%" stop-opacity="0" style="stop-color:rgb(0,0,0)"/></radialGradient><path d=" M 14.856 14.732 C 14.856 15.143 11.756 15.481 7.99 15.481 C 4.224 15.481 1.124 15.143 1.124 14.732 L 1.124 14.732 C 1.124 14.321 4.223 13.983 7.99 13.983 C 11.757 13.983 14.856 14.321 14.856 14.732 L 14.856 14.732 L 14.856 14.732 Z " fill="url(#_rgradient_48)"/><g style="opacity:0.4;"><g style="opacity:0.4;"><g opacity="0.4"><radialGradient id="_rgradient_49" fx="-0.001409145353342467" fy="0.5" cx="0.5" cy="0.5" r="1" gradientTransform="matrix(1.774,0,0,0.624,12.958,14.482)" gradientUnits="userSpaceOnUse"><stop offset="0%" stop-opacity="0.4" style="stop-color:rgb(24,24,24)"/><stop offset="100%" stop-opacity="0" style="stop-color:rgb(24,24,24)"/></radialGradient><rect x="12.958" y="14.482" width="1.774" height="0.624" transform="matrix(1,0,0,1,0,0)" fill="url(#_rgradient_49)"/></g></g><g style="opacity:0.4;"><g opacity="0.4"><radialGradient id="_rgradient_50" fx="1.0013457338124432" fy="0.5" cx="0.5" cy="0.5" r="1" gradientTransform="matrix(1.774,0,0,0.624,1.249,14.482)" gradientUnits="userSpaceOnUse"><stop offset="0%" stop-opacity="0.4" style="stop-color:rgb(24,24,24)"/><stop offset="100%" stop-opacity="0" style="stop-color:rgb(24,24,24)"/></radialGradient><rect x="1.249" y="14.482" width="1.774" height="0.624" transform="matrix(1,0,0,1,0,0)" fill="url(#_rgradient_50)"/></g></g><g style="opacity:0.4;"><g opacity="0.4"><linearGradient id="_lgradient_31" x1="0.5377906391545042" y1="1.0040048057669182" x2="0.5377906391545046" y2="0.9976409679635284" gradientTransform="matrix(9.935,0,0,0.624,3.022,14.482)" gradientUnits="userSpaceOnUse"><stop offset="0%" stop-opacity="0" style="stop-color:rgb(24,24,24)"/><stop offset="50%" stop-opacity="0.4" style="stop-color:rgb(24,24,24)"/><stop offset="100%" stop-opacity="0" style="stop-color:rgb(24,24,24)"/></linearGradient><rect x="3.022" y="14.482" width="9.935" height="0.624" transform="matrix(1,0,0,1,0,0)" fill="url(#_lgradient_31)"/></g></g></g><radialGradient id="_rgradient_51" fx="0.4999970551569111" fy="-0.0028741668548094013" cx="0.5" cy="0.5" r="1" gradientTransform="matrix(12.734,0,0,12.734,1.623,1.997)" gradientUnits="userSpaceOnUse"><stop offset="0%" stop-opacity="1" style="stop-color:rgb(250,250,250)"/><stop offset="100%" stop-opacity="1" style="stop-color:rgb(225,225,225)"/></radialGradient><path d=" M 14.357 2.559 C 14.357 2.249 14.105 1.997 13.795 1.997 L 2.185 1.997 C 1.875 1.997 1.623 2.249 1.623 2.559 L 1.623 14.17 C 1.623 14.48 1.875 14.732 2.185 14.732 L 13.795 14.732 C 14.105 14.732 14.357 14.48 14.357 14.17 L 14.357 2.559 L 14.357 2.559 Z " fill-rule="evenodd" fill="url(#_rgradient_51)"/></g><linearGradient id="_lgradient_32" x1="0.14644660940672605" y1="0.8535533905932734" x2="0.7281094388844305" y2="0.0401233980284611" gradientTransform="matrix(6.056,0,0,8.47,4.972,3.765)" gradientUnits="userSpaceOnUse"><stop offset="0%" stop-opacity="1" style="stop-color:rgb(153,0,255)"/><stop offset="100%" stop-opacity="1" style="stop-color:rgb(255,0,200)"/></linearGradient><path d=" M 9.817 4.977 C 9.145 4.977 8.606 5.516 8.606 6.188 C 8.606 6.633 8.852 7.021 9.211 7.229 L 9.211 7.399 C 9.211 8.005 8.606 8.61 8 8.61 C 7.498 8.61 7.101 8.715 6.789 8.885 L 6.789 6.017 C 7.148 5.809 7.394 5.421 7.394 4.977 C 7.394 4.305 6.855 3.765 6.183 3.765 C 5.511 3.765 4.972 4.305 4.972 4.977 C 4.972 5.421 5.218 5.809 5.577 6.017 L 5.577 9.983 C 5.218 10.191 4.972 10.579 4.972 11.024 C 4.972 11.695 5.511 12.235 6.183 12.235 C 6.855 12.235 7.394 11.695 7.394 11.024 C 7.394 10.702 7.271 10.418 7.073 10.2 C 7.252 9.983 7.536 9.812 8 9.812 C 9.211 9.812 10.423 8.601 10.423 7.39 L 10.423 7.219 C 10.782 7.011 11.028 6.623 11.028 6.178 C 11.028 5.506 10.489 4.967 9.817 4.967 L 9.817 4.977 Z  M 6.183 4.371 C 6.514 4.371 6.789 4.645 6.789 4.977 C 6.789 5.308 6.514 5.582 6.183 5.582 C 5.852 5.582 5.577 5.308 5.577 4.977 C 5.577 4.645 5.852 4.371 6.183 4.371 Z  M 6.183 11.639 C 5.852 11.639 5.577 11.364 5.577 11.033 C 5.577 10.702 5.852 10.427 6.183 10.427 C 6.514 10.427 6.789 10.702 6.789 11.033 C 6.789 11.364 6.514 11.639 6.183 11.639 Z  M 9.817 6.793 C 9.486 6.793 9.211 6.519 9.211 6.188 C 9.211 5.857 9.486 5.582 9.817 5.582 C 10.148 5.582 10.423 5.857 10.423 6.188 C 10.423 6.519 10.148 6.793 9.817 6.793 Z " fill="url(#_lgradient_32)"/></g></svg>