<?xml version="1.0" encoding="UTF-8"?>
<svg xmlns="http://www.w3.org/2000/svg" xmlns:xlink="http://www.w3.org/1999/xlink" width="16px" height="16px" viewBox="0 0 16 16" version="1.1">
<g id="surface148860">
<path style=" stroke:none;fill-rule:nonzero;fill:rgb(0%,0%,0%);fill-opacity:1;" d="M 10.90625 1.5 C 9.355469 1.5 7.960938 2.378906 7.394531 3.714844 C 6.859375 2.691406 5.742188 2.039062 4.515625 2.039062 C 2.75 2.039062 1.316406 3.363281 1.316406 5 C 1.316406 6.636719 2.75 7.960938 4.515625 7.960938 C 5.742188 7.960938 6.859375 7.308594 7.394531 6.285156 C 7.960938 7.621094 9.355469 8.5 10.90625 8.5 C 12.992188 8.5 14.683594 6.933594 14.683594 5 C 14.683594 3.066406 12.992188 1.5 10.90625 1.5 Z M 10.90625 2.578125 C 12.347656 2.578125 13.519531 3.660156 13.519531 5 C 13.519531 6.339844 12.347656 7.421875 10.90625 7.421875 C 9.460938 7.421875 8.289062 6.339844 8.289062 5 C 8.289062 3.660156 9.460938 2.578125 10.90625 2.578125 Z M 4.515625 3.117188 C 5.636719 3.117188 6.546875 3.960938 6.546875 5 C 6.546875 6.039062 5.636719 6.882812 4.515625 6.882812 C 3.390625 6.882812 2.480469 6.039062 2.480469 5 C 2.480469 3.960938 3.390625 3.117188 4.515625 3.117188 Z M 4.515625 3.117188 "/>
<path style=" stroke:none;fill-rule:nonzero;fill:rgb(0%,0%,0%);fill-opacity:1;" d="M 4 7 L 4.015625 11.210938 L 5.015625 11.210938 L 5.015625 7 Z M 4 7 "/>
<path style=" stroke:none;fill-rule:nonzero;fill:rgb(0%,0%,0%);fill-opacity:1;" d="M 11 8 C 11 10 9 10 9 10 L 4 10 L 4.015625 10.761719 L 9 10.765625 C 11 10.765625 12 9 12 8 Z M 11 8 "/>
<path style=" stroke:none;fill-rule:nonzero;fill:rgb(0%,0%,0%);fill-opacity:1;" d="M 4.511719 10.710938 C 3.140625 10.710938 2.011719 11.835938 2.011719 13.210938 C 2.011719 14.585938 3.140625 15.710938 4.511719 15.710938 C 5.886719 15.710938 7.011719 14.585938 7.011719 13.210938 C 7.011719 11.835938 5.886719 10.710938 4.511719 10.710938 Z M 4.511719 11.710938 C 5.347656 11.710938 6.011719 12.375 6.011719 13.210938 C 6.011719 14.046875 5.347656 14.710938 4.511719 14.710938 C 3.679688 14.710938 3.011719 14.046875 3.011719 13.210938 C 3.011719 12.375 3.679688 11.710938 4.511719 11.710938 Z M 4.511719 11.710938 "/>
<path style=" stroke:none;fill-rule:nonzero;fill:rgb(0%,0%,0%);fill-opacity:0.5;" d="M 6.546875 5 C 6.546875 6.105469 5.636719 7 4.515625 7 C 3.390625 7 2.480469 6.105469 2.480469 5 C 2.480469 3.894531 3.390625 3 4.515625 3 C 5.636719 3 6.546875 3.894531 6.546875 5 Z M 6.546875 5 "/>
<path style=" stroke:none;fill-rule:nonzero;fill:rgb(0%,0%,0%);fill-opacity:0.5;" d="M 13.757812 5 C 13.757812 6.496094 12.523438 7.710938 11 7.710938 C 9.476562 7.710938 8.242188 6.496094 8.242188 5 C 8.242188 3.503906 9.476562 2.289062 11 2.289062 C 12.523438 2.289062 13.757812 3.503906 13.757812 5 Z M 13.757812 5 "/>
</g>
</svg>
