<?xml version="1.0" encoding="UTF-8" standalone="no"?><!-- Generator: Gravit.io --><svg xmlns="http://www.w3.org/2000/svg" xmlns:xlink="http://www.w3.org/1999/xlink" style="isolation:isolate" viewBox="0 0 32 32" width="32pt" height="32pt"><defs><clipPath id="_clipPath_lbHniIM6m4ThTD8jzuxZ913yDIACfW96"><rect width="32" height="32"/></clipPath></defs><g clip-path="url(#_clipPath_lbHniIM6m4ThTD8jzuxZ913yDIACfW96)"><rect x="0" y="0" width="32" height="32" transform="matrix(1,0,0,1,0,0)" fill="none"/><g><radialGradient id="_rgradient_40" fx="0.5000018204656751" fy="0.5000417188151829" cx="0.5" cy="0.5" r="1" gradientTransform="matrix(27.465,0,0,2.996,2.247,27.965)" gradientUnits="userSpaceOnUse"><stop offset="0%" stop-opacity="0.2" style="stop-color:rgb(0,0,0)"/><stop offset="100%" stop-opacity="0" style="stop-color:rgb(0,0,0)"/></radialGradient><path d=" M 29.713 29.463 C 29.712 30.285 23.513 30.962 15.98 30.962 C 8.447 30.962 2.249 30.285 2.247 29.463 L 2.247 29.463 C 2.247 28.642 8.446 27.965 15.98 27.965 C 23.514 27.965 29.713 28.642 29.713 29.463 L 29.713 29.463 L 29.713 29.463 Z " fill="url(#_rgradient_40)"/><g style="opacity:0.4;"><g style="opacity:0.4;"><g opacity="0.4"><radialGradient id="_rgradient_41" fx="-0.001409145353342467" fy="0.5" cx="0.5" cy="0.5" r="1" gradientTransform="matrix(3.548,0,0,1.248,25.915,28.964)" gradientUnits="userSpaceOnUse"><stop offset="0%" stop-opacity="0.4" style="stop-color:rgb(24,24,24)"/><stop offset="100%" stop-opacity="0" style="stop-color:rgb(24,24,24)"/></radialGradient><rect x="25.915" y="28.964" width="3.548" height="1.249" transform="matrix(1,0,0,1,0,0)" fill="url(#_rgradient_41)"/></g></g><g style="opacity:0.4;"><g opacity="0.4"><radialGradient id="_rgradient_42" fx="1.0013457338124432" fy="0.5" cx="0.5" cy="0.5" r="1" gradientTransform="matrix(3.548,0,0,1.248,2.497,28.964)" gradientUnits="userSpaceOnUse"><stop offset="0%" stop-opacity="0.4" style="stop-color:rgb(24,24,24)"/><stop offset="100%" stop-opacity="0" style="stop-color:rgb(24,24,24)"/></radialGradient><rect x="2.497" y="28.964" width="3.548" height="1.249" transform="matrix(1,0,0,1,0,0)" fill="url(#_rgradient_42)"/></g></g><g style="opacity:0.4;"><g opacity="0.4"><linearGradient id="_lgradient_27" x1="0.5377906391545042" y1="1.0040048057669182" x2="0.5377906391545046" y2="0.9976409679635284" gradientTransform="matrix(19.87,0,0,1.249,6.045,28.964)" gradientUnits="userSpaceOnUse"><stop offset="0%" stop-opacity="0" style="stop-color:rgb(24,24,24)"/><stop offset="50%" stop-opacity="0.4" style="stop-color:rgb(24,24,24)"/><stop offset="100%" stop-opacity="0" style="stop-color:rgb(24,24,24)"/></linearGradient><rect x="6.045" y="28.964" width="19.87" height="1.249" transform="matrix(1,0,0,1,0,0)" fill="url(#_lgradient_27)"/></g></g></g><radialGradient id="_rgradient_43" fx="0.4999970551569111" fy="-0.0028741668548094013" cx="0.5" cy="0.5" r="1" gradientTransform="matrix(25.468,0,0,25.468,3.246,3.995)" gradientUnits="userSpaceOnUse"><stop offset="0%" stop-opacity="1" style="stop-color:rgb(250,250,250)"/><stop offset="100%" stop-opacity="1" style="stop-color:rgb(225,225,225)"/></radialGradient><path d=" M 28.714 5.119 C 28.714 4.498 28.211 3.995 27.59 3.995 L 4.37 3.995 C 3.75 3.995 3.246 4.498 3.246 5.119 L 3.246 28.34 C 3.246 28.96 3.75 29.463 4.37 29.463 L 27.59 29.463 C 28.211 29.463 28.714 28.96 28.714 28.34 L 28.714 5.119 L 28.714 5.119 Z " fill-rule="evenodd" fill="url(#_rgradient_43)"/></g><linearGradient id="_lgradient_28" x1="0.14644660940672605" y1="0.8535533905932734" x2="0.7281094388844305" y2="0.0401233980284611" gradientTransform="matrix(12.113,0,0,16.939,9.943,7.53)" gradientUnits="userSpaceOnUse"><stop offset="0%" stop-opacity="1" style="stop-color:rgb(153,0,255)"/><stop offset="100%" stop-opacity="1" style="stop-color:rgb(255,0,200)"/></linearGradient><path d=" M 19.634 9.953 C 18.29 9.953 17.211 11.032 17.211 12.375 C 17.211 13.265 17.704 14.041 18.423 14.458 L 18.423 14.798 C 18.423 16.01 17.211 17.221 16 17.221 C 14.997 17.221 14.202 17.429 13.578 17.77 L 13.578 12.035 C 14.297 11.618 14.789 10.842 14.789 9.953 C 14.789 8.609 13.71 7.53 12.366 7.53 C 11.022 7.53 9.943 8.609 9.943 9.953 C 9.943 10.842 10.436 11.618 11.155 12.035 L 11.155 19.965 C 10.436 20.382 9.943 21.157 9.943 22.047 C 9.943 23.391 11.022 24.47 12.366 24.47 C 13.71 24.47 14.789 23.391 14.789 22.047 C 14.789 21.403 14.543 20.836 14.145 20.4 C 14.505 19.965 15.073 19.625 16 19.625 C 18.423 19.625 20.845 17.202 20.845 14.779 L 20.845 14.439 C 21.565 14.022 22.056 13.246 22.056 12.356 C 22.056 11.013 20.978 9.934 19.634 9.934 L 19.634 9.953 Z  M 12.366 8.741 C 13.028 8.741 13.578 9.29 13.578 9.953 C 13.578 10.615 13.028 11.164 12.366 11.164 C 11.704 11.164 11.155 10.615 11.155 9.953 C 11.155 9.29 11.704 8.741 12.366 8.741 Z  M 12.366 23.277 C 11.704 23.277 11.155 22.729 11.155 22.066 C 11.155 21.403 11.704 20.855 12.366 20.855 C 13.028 20.855 13.578 21.403 13.578 22.066 C 13.578 22.729 13.028 23.277 12.366 23.277 Z  M 19.634 13.587 C 18.972 13.587 18.423 13.038 18.423 12.375 C 18.423 11.713 18.972 11.164 19.634 11.164 C 20.296 11.164 20.845 11.713 20.845 12.375 C 20.845 13.038 20.296 13.587 19.634 13.587 Z " fill="url(#_lgradient_28)"/></g></svg>