<?xml version="1.0" encoding="UTF-8"?>
<svg xmlns="http://www.w3.org/2000/svg" xmlns:xlink="http://www.w3.org/1999/xlink" width="32px" height="32px" viewBox="0 0 32 32" version="1.1">
<defs>
<radialGradient id="radial0" gradientUnits="userSpaceOnUse" cx="172" cy="230" fx="172" fy="230" r="6" gradientTransform="matrix(1.916666,0,0,0.583334,-313.16655,-105.666893)">
<stop offset="0" style="stop-color:rgb(0%,0%,0%);stop-opacity:0.25;"/>
<stop offset="1" style="stop-color:rgb(0%,0%,0%);stop-opacity:0;"/>
</radialGradient>
<linearGradient id="linear0" gradientUnits="userSpaceOnUse" x1="172" y1="213" x2="172" y2="231" gradientTransform="matrix(1,0,0,0.932258,-159.500001,-185.334813)">
<stop offset="0" style="stop-color:rgb(83.137256%,55.686277%,8.235294%);stop-opacity:1;"/>
<stop offset="0.279514" style="stop-color:rgb(100%,95.294118%,58.039218%);stop-opacity:1;"/>
<stop offset="0.666667" style="stop-color:rgb(97.647059%,76.862746%,25.098041%);stop-opacity:1;"/>
<stop offset="1" style="stop-color:rgb(83.137256%,55.686277%,8.235294%);stop-opacity:1;"/>
</linearGradient>
<radialGradient id="radial1" gradientUnits="userSpaceOnUse" cx="181.523605" cy="207.515472" fx="181.523605" fy="207.515472" r="3" gradientTransform="matrix(-0.00000487962,2.531596,-2.221924,-0.0000068996,481.869934,-454.057205)">
<stop offset="0" style="stop-color:rgb(39.215687%,72.941178%,100%);stop-opacity:0.5;"/>
<stop offset="1" style="stop-color:rgb(5.098039%,32.156864%,74.901962%);stop-opacity:0.5;"/>
</radialGradient>
<radialGradient id="radial2" gradientUnits="userSpaceOnUse" cx="170.531921" cy="204.523743" fx="170.531921" fy="204.523743" r="3" gradientTransform="matrix(0.00000148368,2.03632,-1.826236,0.0000023619,383.708313,-341.258179)">
<stop offset="0" style="stop-color:rgb(39.215687%,72.941178%,100%);stop-opacity:0.5;"/>
<stop offset="1" style="stop-color:rgb(5.098039%,32.156864%,74.901962%);stop-opacity:0.5;"/>
</radialGradient>
<linearGradient id="linear1" gradientUnits="userSpaceOnUse" x1="177" y1="202" x2="177" y2="214" >
<stop offset="0" style="stop-color:rgb(100%,100%,100%);stop-opacity:0.501961;"/>
<stop offset="0.0833333" style="stop-color:rgb(100%,100%,100%);stop-opacity:0.118108;"/>
<stop offset="0.916667" style="stop-color:rgb(100%,100%,100%);stop-opacity:0.078739;"/>
<stop offset="1" style="stop-color:rgb(100%,100%,100%);stop-opacity:0.196847;"/>
</linearGradient>
</defs>
<g id="surface117525">
<path style=" stroke:none;fill-rule:nonzero;fill:url(#radial0);" d="M 28 28.5 C 28 30.433594 22.851562 32 16.5 32 C 10.148438 32 5 30.433594 5 28.5 C 5 26.566406 10.148438 25 16.5 25 C 22.851562 25 28 26.566406 28 28.5 Z M 28 28.5 "/>
<path style=" stroke:none;fill-rule:nonzero;fill:url(#linear0);" d="M 23 2.050781 C 19.6875 2.050781 17 4.59375 17 7.738281 C 17 10.289062 18.796875 12.53125 21.390625 13.214844 C 21.164062 14.367188 20.574219 16.164062 20.167969 16.597656 C 19.261719 17.449219 18.355469 17.449219 14.738281 17.449219 L 12.925781 17.449219 L 12.925781 12.394531 C 15.289062 11.972656 17 10.015625 17 7.738281 C 17 5.128906 14.777344 3.011719 12.03125 2.996094 L 12.019531 2.996094 C 12.011719 2.996094 12.007812 2.996094 12 2.996094 C 9.238281 2.996094 7 5.121094 7 7.738281 C 7 9.992188 8.675781 11.933594 11.003906 12.382812 L 10.9375 17.21875 L 10.875 19.113281 L 10.683594 19.878906 C 8.476562 20.613281 7 22.585938 7 24.800781 C 7 27.683594 9.460938 30.015625 12.5 30.015625 C 15.539062 30.015625 18 27.683594 18 24.800781 C 18 22.300781 16.128906 20.152344 13.535156 19.683594 L 13.5 19.113281 C 15.308594 19.113281 16.546875 19.144531 18.339844 19.085938 C 21.476562 19.136719 23.03125 15.601562 23.402344 13.410156 C 26.554688 13.210938 29 10.730469 29 7.738281 C 29 4.59375 26.3125 2.050781 23 2.050781 Z M 23 3.472656 C 25.484375 3.472656 27.5 5.382812 27.5 7.738281 C 27.5 10.09375 25.484375 12.003906 23 12.003906 C 20.515625 12.003906 18.5 10.09375 18.5 7.738281 C 18.5 5.382812 20.515625 3.472656 23 3.472656 Z M 12 4.417969 C 13.933594 4.417969 15.5 5.90625 15.5 7.738281 C 15.5 9.570312 13.933594 11.054688 12 11.054688 C 10.066406 11.054688 8.5 9.570312 8.5 7.738281 C 8.5 5.90625 10.066406 4.417969 12 4.417969 Z M 12.5 21.246094 C 14.433594 21.246094 16 22.839844 16 24.800781 C 16 26.765625 14.433594 28.359375 12.5 28.359375 C 10.566406 28.359375 9 26.765625 9 24.800781 C 9 22.839844 10.566406 21.246094 12.5 21.246094 Z M 12.5 21.246094 "/>
<path style="fill:none;stroke-width:1;stroke-linecap:butt;stroke-linejoin:miter;stroke:rgb(67.843139%,37.254903%,0%);stroke-opacity:0.501961;stroke-miterlimit:4;" d="M 183 202.5 C 179.6875 202.5 177 204.964844 177 208.003906 C 177 210.476562 178.796875 212.644531 181.390625 213.308594 C 181.164062 214.421875 181.082031 216.25 180 217 C 178.355469 218.136719 174 217 174 217 L 173 217 L 172.925781 212.511719 C 175.289062 212.101562 177 210.210938 177 208.003906 C 177 205.480469 174.777344 203.433594 172.027344 203.417969 L 172.019531 203.417969 C 172.011719 203.417969 172.007812 203.417969 172 203.417969 C 169.238281 203.417969 167 205.472656 167 208.003906 C 167 210.1875 168.675781 212.066406 171.003906 212.5 L 171 217 L 171 220 C 168.792969 220.707031 167 222.375 167 224.519531 C 167 227.304688 169.460938 229.566406 172.5 229.566406 C 175.539062 229.566406 178 227.304688 178 224.519531 C 178 222.101562 175.589844 220.457031 173 220 L 173 219 C 174.808594 219 176.546875 219.046875 178.339844 218.984375 C 181.476562 219.035156 183.03125 215.617188 183.402344 213.496094 C 186.554688 213.300781 189 210.902344 189 208.003906 C 189 204.964844 186.3125 202.5 183 202.5 Z M 183 203.875 C 185.484375 203.875 187.5 205.726562 187.5 208.003906 C 187.5 210.285156 185.484375 212.132812 183 212.132812 C 180.515625 212.132812 178.5 210.285156 178.5 208.003906 C 178.5 205.726562 180.515625 203.875 183 203.875 Z M 172 204.792969 C 173.933594 204.792969 175.5 206.230469 175.5 208.003906 C 175.5 209.777344 173.933594 211.214844 172 211.214844 C 170.066406 211.214844 168.5 209.777344 168.5 208.003906 C 168.5 206.230469 170.066406 204.792969 172 204.792969 Z M 172.5 221.078125 C 174.433594 221.078125 176 222.621094 176 224.519531 C 176 226.417969 174.433594 227.960938 172.5 227.960938 C 170.566406 227.960938 169 226.417969 169 224.519531 C 169 222.621094 170.566406 221.078125 172.5 221.078125 Z M 172.5 221.078125 " transform="matrix(1,0,0,1,-160,-200)"/>
<path style=" stroke:none;fill-rule:nonzero;fill:url(#radial1);" d="M 27.5 8 C 27.5 10.804688 25.484375 13.082031 23 13.082031 C 20.515625 13.082031 18.5 10.804688 18.5 8 C 18.5 5.195312 20.515625 2.917969 23 2.917969 C 25.484375 2.917969 27.5 5.195312 27.5 8 Z M 27.5 8 "/>
<path style=" stroke:none;fill-rule:nonzero;fill:url(#radial2);" d="M 15.679688 8 C 15.679688 10.246094 14.03125 12.066406 12 12.066406 C 9.96875 12.066406 8.320312 10.246094 8.320312 8 C 8.320312 5.753906 9.96875 3.933594 12 3.933594 C 14.03125 3.933594 15.679688 5.753906 15.679688 8 Z M 15.679688 8 "/>
<path style=" stroke:none;fill-rule:nonzero;fill:rgb(83.137256%,83.137256%,83.137256%);fill-opacity:1;" d="M 23 1.5 C 20.332031 1.5 17.933594 3.132812 16.957031 5.617188 C 16.039062 3.710938 14.113281 2.5 12 2.5 C 8.960938 2.5 6.5 4.960938 6.5 8 C 6.5 11.039062 8.960938 13.5 12 13.5 C 14.113281 13.5 16.039062 12.289062 16.957031 10.386719 C 17.933594 12.867188 20.332031 14.5 23 14.5 C 26.589844 14.5 29.5 11.589844 29.5 8 C 29.5 4.410156 26.589844 1.5 23 1.5 Z M 23 3.5 C 25.484375 3.5 27.5 5.515625 27.5 8 C 27.5 10.484375 25.484375 12.5 23 12.5 C 20.515625 12.5 18.5 10.484375 18.5 8 C 18.5 5.515625 20.515625 3.5 23 3.5 Z M 12 4.5 C 13.933594 4.5 15.5 6.066406 15.5 8 C 15.5 9.933594 13.933594 11.5 12 11.5 C 10.066406 11.5 8.5 9.933594 8.5 8 C 8.5 6.066406 10.066406 4.5 12 4.5 Z M 12 4.5 "/>
<path style="fill:none;stroke-width:0.999997;stroke-linecap:butt;stroke-linejoin:round;stroke:rgb(33.333334%,34.117648%,38.039216%);stroke-opacity:0.501961;stroke-miterlimit:4;" d="M 183 201.5 C 180.332031 201.5 177.933594 203.132812 176.957031 205.613281 C 176.039062 203.710938 174.113281 202.5 172 202.5 C 168.960938 202.5 166.5 204.960938 166.5 208 C 166.5 211.039062 168.960938 213.5 172 213.5 C 174.113281 213.5 176.039062 212.289062 176.957031 210.386719 C 177.933594 212.867188 180.332031 214.5 183 214.5 C 186.589844 214.5 189.5 211.589844 189.5 208 C 189.5 204.410156 186.589844 201.5 183 201.5 Z M 183 203.5 C 185.484375 203.5 187.5 205.515625 187.5 208 C 187.5 210.484375 185.484375 212.5 183 212.5 C 180.515625 212.5 178.5 210.484375 178.5 208 C 178.5 205.515625 180.515625 203.5 183 203.5 Z M 172 204.5 C 173.933594 204.5 175.5 206.066406 175.5 208 C 175.5 209.933594 173.933594 211.5 172 211.5 C 170.066406 211.5 168.5 209.933594 168.5 208 C 168.5 206.066406 170.066406 204.5 172 204.5 Z M 172 204.5 " transform="matrix(1,0,0,1,-160,-200)"/>
<path style="fill:none;stroke-width:0.999995;stroke-linecap:butt;stroke-linejoin:round;stroke:url(#linear1);stroke-miterlimit:4;" d="M 182.566406 202.5 C 180.128906 202.5 177.941406 203.882812 177.046875 205.980469 C 176.210938 204.371094 174.449219 203.347656 172.523438 203.347656 C 169.75 203.347656 167.5 205.429688 167.5 208 C 167.5 210.570312 169.75 212.652344 172.523438 212.652344 C 174.449219 212.652344 176.207031 211.628906 177.046875 210.019531 C 177.941406 212.121094 180.128906 213.5 182.566406 213.5 C 185.84375 213.5 188.5 211.039062 188.5 208 C 188.5 204.960938 185.84375 202.5 182.566406 202.5 Z M 182.566406 204.191406 C 184.835938 204.191406 186.675781 205.898438 186.675781 208 C 186.675781 210.101562 184.835938 211.808594 182.566406 211.808594 C 180.296875 211.808594 178.457031 210.101562 178.457031 208 C 178.457031 205.898438 180.296875 204.191406 182.566406 204.191406 Z M 172.523438 205.039062 C 174.285156 205.039062 175.71875 206.363281 175.71875 208 C 175.71875 209.636719 174.285156 210.960938 172.523438 210.960938 C 170.757812 210.960938 169.324219 209.636719 169.324219 208 C 169.324219 206.363281 170.757812 205.039062 172.523438 205.039062 Z M 172.523438 205.039062 " transform="matrix(1,0,0,1,-160,-200)"/>
</g>
</svg>
