<?xml version="1.0" encoding="UTF-8"?>
<svg xmlns="http://www.w3.org/2000/svg" xmlns:xlink="http://www.w3.org/1999/xlink" width="64px" height="64px" viewBox="0 0 64 64" version="1.1">
<defs>
<radialGradient id="radial0" gradientUnits="userSpaceOnUse" cx="172" cy="230" fx="172" fy="230" r="6" gradientTransform="matrix(3.833331,0,0,1.166668,-626.332977,-211.333733)">
<stop offset="0" style="stop-color:rgb(0%,0%,0%);stop-opacity:0.25;"/>
<stop offset="1" style="stop-color:rgb(0%,0%,0%);stop-opacity:0;"/>
</radialGradient>
<linearGradient id="linear0" gradientUnits="userSpaceOnUse" x1="172" y1="213" x2="172" y2="231" gradientTransform="matrix(2,0,0,1.864516,-318.999939,-370.669556)">
<stop offset="0" style="stop-color:rgb(83.137256%,55.686277%,8.235294%);stop-opacity:1;"/>
<stop offset="0.279514" style="stop-color:rgb(100%,95.294118%,58.039218%);stop-opacity:1;"/>
<stop offset="0.666667" style="stop-color:rgb(97.647059%,76.862746%,25.098041%);stop-opacity:1;"/>
<stop offset="1" style="stop-color:rgb(83.137256%,55.686277%,8.235294%);stop-opacity:1;"/>
</linearGradient>
<radialGradient id="radial1" gradientUnits="userSpaceOnUse" cx="181.523605" cy="207.515472" fx="181.523605" fy="207.515472" r="3" gradientTransform="matrix(-0.00000975923,5.063191,-4.443847,-0.0000137992,963.739624,-908.114197)">
<stop offset="0" style="stop-color:rgb(39.215687%,72.941178%,100%);stop-opacity:0.5;"/>
<stop offset="1" style="stop-color:rgb(5.098039%,32.156864%,74.901962%);stop-opacity:0.5;"/>
</radialGradient>
<radialGradient id="radial2" gradientUnits="userSpaceOnUse" cx="170.531921" cy="204.523743" fx="170.531921" fy="204.523743" r="3" gradientTransform="matrix(0.00000296736,4.072639,-3.652472,0.00000472379,767.416443,-682.516205)">
<stop offset="0" style="stop-color:rgb(39.215687%,72.941178%,100%);stop-opacity:0.5;"/>
<stop offset="1" style="stop-color:rgb(5.098039%,32.156864%,74.901962%);stop-opacity:0.5;"/>
</radialGradient>
<linearGradient id="linear1" gradientUnits="userSpaceOnUse" x1="177" y1="202" x2="177" y2="214" gradientTransform="matrix(2,0,0,2,-187.999939,-163.999924)">
<stop offset="0" style="stop-color:rgb(100%,100%,100%);stop-opacity:0.501961;"/>
<stop offset="0.0833333" style="stop-color:rgb(100%,100%,100%);stop-opacity:0.118108;"/>
<stop offset="0.916667" style="stop-color:rgb(100%,100%,100%);stop-opacity:0.078739;"/>
<stop offset="1" style="stop-color:rgb(100%,100%,100%);stop-opacity:0.196847;"/>
</linearGradient>
</defs>
<g id="surface117514">
<path style=" stroke:none;fill-rule:nonzero;fill:url(#radial0);" d="M 56 57 C 56 60.867188 45.703125 64 33 64 C 20.296875 64 10 60.867188 10 57 C 10 53.132812 20.296875 50 33 50 C 45.703125 50 56 53.132812 56 57 Z M 56 57 "/>
<path style=" stroke:none;fill-rule:nonzero;fill:url(#linear0);" d="M 46 4.097656 C 39.371094 4.097656 34 9.191406 34 15.472656 C 34 20.582031 37.589844 25.0625 42.78125 26.433594 C 42.328125 28.734375 41.148438 32.328125 40.332031 33.195312 C 38.523438 34.894531 36.714844 34.894531 29.476562 34.894531 L 25.855469 34.894531 L 25.855469 24.789062 C 30.578125 23.941406 34 20.03125 34 15.472656 C 34 10.261719 29.558594 6.023438 24.058594 5.992188 L 24.039062 5.992188 C 24.023438 5.992188 24.011719 5.992188 24 5.992188 C 18.476562 5.992188 14 10.238281 14 15.472656 C 14 19.980469 17.347656 23.863281 22.007812 24.761719 L 21.878906 34.4375 L 21.75 38.226562 L 21.367188 39.761719 C 16.953125 41.226562 14 45.171875 14 49.605469 C 14 55.363281 18.925781 60.03125 25 60.03125 C 31.074219 60.03125 36 55.363281 36 49.605469 C 36 44.605469 32.253906 40.308594 27.074219 39.363281 L 27 38.226562 C 30.617188 38.226562 33.097656 38.289062 36.679688 38.167969 C 42.953125 38.273438 46.066406 31.207031 46.808594 26.820312 C 53.105469 26.417969 57.996094 21.457031 58 15.472656 C 58 9.191406 52.628906 4.097656 46 4.097656 Z M 46 6.941406 C 50.96875 6.941406 55 10.761719 55 15.472656 C 55 20.1875 50.96875 24.007812 46 24.007812 C 41.03125 24.007812 37 20.1875 37 15.472656 C 37 10.761719 41.03125 6.941406 46 6.941406 Z M 24 8.839844 C 27.867188 8.839844 31 11.808594 31 15.472656 C 31 19.140625 27.867188 22.109375 24 22.109375 C 20.132812 22.109375 17 19.140625 17 15.472656 C 17 11.808594 20.132812 8.839844 24 8.839844 Z M 25 42.492188 C 28.867188 42.492188 32 45.675781 32 49.605469 C 32 53.53125 28.867188 56.714844 25 56.714844 C 21.132812 56.714844 18 53.53125 18 49.605469 C 18 45.675781 21.132812 42.492188 25 42.492188 Z M 25 42.492188 "/>
<path style="fill:none;stroke-width:1;stroke-linecap:butt;stroke-linejoin:miter;stroke:rgb(67.843139%,37.254903%,0%);stroke-opacity:0.501961;stroke-miterlimit:4;" d="M 178 241 C 171.371094 241 166 245.929688 166 252.007812 C 166 256.953125 169.589844 261.289062 174.78125 262.613281 C 174.328125 264.839844 174.164062 268.503906 172 270 C 168.710938 272.277344 160 270 160 270 L 158 270 L 157.855469 261.023438 C 162.578125 260.203125 166 256.417969 166 252.011719 C 166 246.964844 161.558594 242.863281 156.058594 242.835938 L 156.039062 242.835938 C 156.023438 242.835938 156.011719 242.835938 156 242.835938 C 150.476562 242.835938 146 246.941406 146 252.011719 C 146 256.371094 149.347656 260.128906 154.007812 261 L 154 270 L 154 276 C 149.585938 277.417969 146 280.75 146 285.039062 C 146 290.613281 150.925781 295.132812 157 295.132812 C 163.074219 295.132812 168 290.613281 168 285.039062 C 168 280.199219 163.179688 276.914062 158 276 L 158 274 C 161.617188 274 165.09375 274.089844 168.679688 273.972656 C 174.949219 274.074219 178.066406 267.234375 178.808594 262.992188 C 185.105469 262.601562 189.996094 257.800781 190 252.007812 C 190 245.929688 184.625 241 178 241 Z M 178 243.753906 C 182.96875 243.753906 187 247.449219 187 252.007812 C 187 256.570312 182.96875 260.265625 178 260.265625 C 173.027344 260.265625 169 256.570312 169 252.007812 C 169 247.449219 173.027344 243.753906 178 243.753906 Z M 156 245.585938 C 159.867188 245.585938 163 248.460938 163 252.007812 C 163 255.554688 159.867188 258.433594 156 258.433594 C 152.132812 258.433594 149 255.554688 149 252.007812 C 149 248.460938 152.132812 245.585938 156 245.585938 Z M 157 278.15625 C 160.867188 278.15625 164 281.238281 164 285.039062 C 164 288.839844 160.867188 291.917969 157 291.917969 C 153.132812 291.917969 150 288.839844 150 285.039062 C 150 281.238281 153.132812 278.15625 157 278.15625 Z M 157 278.15625 " transform="matrix(1,0,0,1,-132,-236)"/>
<path style=" stroke:none;fill-rule:nonzero;fill:url(#radial1);" d="M 55 16 C 55 21.613281 50.96875 26.160156 46 26.160156 C 41.03125 26.160156 37 21.613281 37 16 C 37 10.386719 41.03125 5.839844 46 5.839844 C 50.96875 5.839844 55 10.386719 55 16 Z M 55 16 "/>
<path style=" stroke:none;fill-rule:nonzero;fill:url(#radial2);" d="M 31.355469 16 C 31.355469 20.488281 28.0625 24.128906 24 24.128906 C 19.9375 24.128906 16.644531 20.488281 16.644531 16 C 16.644531 11.511719 19.9375 7.871094 24 7.871094 C 28.0625 7.871094 31.355469 11.511719 31.355469 16 Z M 31.355469 16 "/>
<path style="fill-rule:nonzero;fill:rgb(83.137256%,83.137256%,83.137256%);fill-opacity:1;stroke-width:0.999998;stroke-linecap:butt;stroke-linejoin:round;stroke:rgb(33.333334%,34.117648%,38.039216%);stroke-opacity:0.501961;stroke-miterlimit:4;" d="M 178 239 C 172.664062 239 167.867188 242.265625 165.910156 247.230469 C 164.078125 243.421875 160.226562 241 156 241 C 149.925781 241 145 245.925781 145 252 C 145 258.074219 149.925781 263 156 263 C 160.226562 263 164.078125 260.578125 165.910156 256.773438 C 167.871094 261.738281 172.664062 265 178 265 C 185.179688 265 191 259.179688 191 252 C 191 244.820312 185.179688 239 178 239 Z M 178 243 C 182.96875 243 187 247.03125 187 252 C 187 256.96875 182.96875 261 178 261 C 173.03125 261 169 256.96875 169 252 C 169 247.03125 173.03125 243 178 243 Z M 156 245 C 159.867188 245 163 248.132812 163 252 C 163 255.867188 159.867188 259 156 259 C 152.132812 259 149 255.867188 149 252 C 149 248.132812 152.132812 245 156 245 Z M 156 245 " transform="matrix(1,0,0,1,-132,-236)"/>
<path style="fill:none;stroke-width:0.999996;stroke-linecap:butt;stroke-linejoin:round;stroke:url(#linear1);stroke-miterlimit:4;" d="M 177.128906 241 C 172.257812 241 167.878906 243.761719 166.09375 247.964844 C 164.417969 244.742188 160.902344 242.691406 157.042969 242.691406 C 151.496094 242.691406 147 246.859375 147 252 C 147 257.140625 151.496094 261.308594 157.042969 261.308594 C 160.902344 261.308594 164.417969 259.261719 166.09375 256.039062 C 167.882812 260.238281 172.257812 263 177.128906 263 C 183.6875 263 189 258.074219 189 252 C 189 245.925781 183.6875 241 177.128906 241 Z M 177.128906 244.382812 C 181.667969 244.382812 185.347656 247.792969 185.347656 252 C 185.347656 256.207031 181.667969 259.617188 177.128906 259.617188 C 172.59375 259.617188 168.914062 256.207031 168.914062 252 C 168.914062 247.792969 172.59375 244.382812 177.128906 244.382812 Z M 157.042969 246.078125 C 160.574219 246.078125 163.433594 248.730469 163.433594 252 C 163.433594 255.269531 160.574219 257.921875 157.042969 257.921875 C 153.511719 257.921875 150.652344 255.269531 150.652344 252 C 150.652344 248.730469 153.511719 246.078125 157.042969 246.078125 Z M 157.042969 246.078125 " transform="matrix(1,0,0,1,-132,-236)"/>
</g>
</svg>
