<?xml version="1.0" encoding="UTF-8" standalone="no"?><!-- Generator: Gravit.io --><svg xmlns="http://www.w3.org/2000/svg" xmlns:xlink="http://www.w3.org/1999/xlink" style="isolation:isolate" viewBox="0 0 64 64" width="64pt" height="64pt"><defs><clipPath id="_clipPath_Paqg8LtkQ0AO8VXYSJSYWBXcPZfUsxg6"><rect width="64" height="64"/></clipPath></defs><g clip-path="url(#_clipPath_Paqg8LtkQ0AO8VXYSJSYWBXcPZfUsxg6)"><rect x="0" y="0" width="64" height="64" transform="matrix(1,0,0,1,0,0)" fill="none"/><g><radialGradient id="_rgradient_32" fx="0.5000018204656751" fy="0.5000417188151829" cx="0.5" cy="0.5" r="1" gradientTransform="matrix(54.931,0,0,5.993,4.495,55.931)" gradientUnits="userSpaceOnUse"><stop offset="0%" stop-opacity="0.2" style="stop-color:rgb(0,0,0)"/><stop offset="100%" stop-opacity="0" style="stop-color:rgb(0,0,0)"/></radialGradient><path d=" M 59.425 58.927 C 59.423 60.57 47.026 61.923 31.96 61.923 C 16.895 61.923 4.497 60.57 4.495 58.927 L 4.495 58.926 C 4.495 57.283 16.893 55.931 31.96 55.931 C 47.028 55.931 59.425 57.283 59.425 58.926 L 59.425 58.927 L 59.425 58.927 Z " fill="url(#_rgradient_32)"/><g style="opacity:0.4;"><g style="opacity:0.4;"><g opacity="0.4"><radialGradient id="_rgradient_33" fx="-0.001409145353342467" fy="0.5" cx="0.5" cy="0.5" r="1" gradientTransform="matrix(7.096,0,0,2.497,51.83,57.928)" gradientUnits="userSpaceOnUse"><stop offset="0%" stop-opacity="0.4" style="stop-color:rgb(24,24,24)"/><stop offset="100%" stop-opacity="0" style="stop-color:rgb(24,24,24)"/></radialGradient><rect x="51.83" y="57.928" width="7.097" height="2.497" transform="matrix(1,0,0,1,0,0)" fill="url(#_rgradient_33)"/></g></g><g style="opacity:0.4;"><g opacity="0.4"><radialGradient id="_rgradient_34" fx="1.0013457338124432" fy="0.5" cx="0.5" cy="0.5" r="1" gradientTransform="matrix(7.096,0,0,2.497,4.994,57.928)" gradientUnits="userSpaceOnUse"><stop offset="0%" stop-opacity="0.4" style="stop-color:rgb(24,24,24)"/><stop offset="100%" stop-opacity="0" style="stop-color:rgb(24,24,24)"/></radialGradient><rect x="4.994" y="57.928" width="7.096" height="2.497" transform="matrix(1,0,0,1,0,0)" fill="url(#_rgradient_34)"/></g></g><g style="opacity:0.4;"><g opacity="0.4"><linearGradient id="_lgradient_23" x1="0.5377906391545042" y1="1.0040048057669182" x2="0.5377906391545046" y2="0.9976409679635284" gradientTransform="matrix(39.74,0,0,2.497,12.09,57.929)" gradientUnits="userSpaceOnUse"><stop offset="0%" stop-opacity="0" style="stop-color:rgb(24,24,24)"/><stop offset="50%" stop-opacity="0.4" style="stop-color:rgb(24,24,24)"/><stop offset="100%" stop-opacity="0" style="stop-color:rgb(24,24,24)"/></linearGradient><rect x="12.09" y="57.929" width="39.74" height="2.497" transform="matrix(1,0,0,1,0,0)" fill="url(#_lgradient_23)"/></g></g></g><radialGradient id="_rgradient_35" fx="0.4999970551569111" fy="-0.0028741668548094013" cx="0.5" cy="0.5" r="1" gradientTransform="matrix(50.937,0,0,50.936,6.492,7.99)" gradientUnits="userSpaceOnUse"><stop offset="0%" stop-opacity="1" style="stop-color:rgb(250,250,250)"/><stop offset="100%" stop-opacity="1" style="stop-color:rgb(225,225,225)"/></radialGradient><path d=" M 57.429 10.237 C 57.429 8.997 56.422 7.99 55.181 7.99 L 8.739 7.99 C 7.499 7.99 6.492 8.997 6.492 10.237 L 6.492 56.679 C 6.492 57.919 7.499 58.926 8.739 58.926 L 55.181 58.926 C 56.422 58.926 57.429 57.919 57.429 56.679 L 57.429 10.237 L 57.429 10.237 Z " fill-rule="evenodd" fill="url(#_rgradient_35)"/></g><linearGradient id="_lgradient_24" x1="0.14644660940672605" y1="0.8535533905932734" x2="0.7281094388844305" y2="0.0401233980284611" gradientTransform="matrix(24.226,0,0,33.879,19.887,15.061)" gradientUnits="userSpaceOnUse"><stop offset="0%" stop-opacity="1" style="stop-color:rgb(153,0,255)"/><stop offset="100%" stop-opacity="1" style="stop-color:rgb(255,0,200)"/></linearGradient><path d=" M 39.268 19.906 C 36.581 19.906 34.423 22.063 34.423 24.751 C 34.423 26.53 35.407 28.082 36.845 28.915 L 36.845 29.597 C 36.845 32.019 34.423 34.442 32 34.442 C 29.994 34.442 28.404 34.858 27.155 35.54 L 27.155 24.069 C 28.593 23.237 29.577 21.685 29.577 19.906 C 29.577 17.219 27.42 15.061 24.732 15.061 C 22.045 15.061 19.887 17.219 19.887 19.906 C 19.887 21.685 20.871 23.237 22.309 24.069 L 22.309 39.931 C 20.871 40.763 19.887 42.315 19.887 44.094 C 19.887 46.782 22.045 48.939 24.732 48.939 C 27.42 48.939 29.577 46.782 29.577 44.094 C 29.577 42.807 29.086 41.672 28.291 40.801 C 29.01 39.931 30.145 39.249 32 39.249 C 36.845 39.249 41.69 34.403 41.69 29.559 L 41.69 28.877 C 43.129 28.045 44.113 26.493 44.113 24.713 C 44.113 22.025 41.956 19.868 39.268 19.868 L 39.268 19.906 Z  M 24.732 17.483 C 26.057 17.483 27.155 18.581 27.155 19.906 C 27.155 21.23 26.057 22.329 24.732 22.329 C 23.407 22.329 22.309 21.23 22.309 19.906 C 22.309 18.581 23.407 17.483 24.732 17.483 Z  M 24.732 46.555 C 23.407 46.555 22.309 45.457 22.309 44.132 C 22.309 42.807 23.407 41.709 24.732 41.709 C 26.057 41.709 27.155 42.807 27.155 44.132 C 27.155 45.457 26.057 46.555 24.732 46.555 Z  M 39.268 27.174 C 37.943 27.174 36.845 26.076 36.845 24.751 C 36.845 23.426 37.943 22.329 39.268 22.329 C 40.592 22.329 41.69 23.426 41.69 24.751 C 41.69 26.076 40.592 27.174 39.268 27.174 Z " fill="url(#_lgradient_24)"/></g></svg>